<svg version="1.1" id="Calque_1" xmlns="http://www.w3.org/2000/svg" xmlns:xlink="http://www.w3.org/1999/xlink" x="0px" y="0px"
	 viewBox="0 0 921 1839" style="enable-background:new 0 0 921 1839;" xml:space="preserve">
<g>
	<path d="M921,1C614.58,1,308.17,1,1.02,1c0,2.24,0,4,0,5.76c0.01,485.11,0.01,970.22,0.05,1455.32
		c0.01,121.14,0.16,242.29,0.23,363.43c0,4.5-0.19,8.99-0.29,13.49c-0.33-0.17-0.94-0.32-0.96-0.5c-0.08-1.33-0.04-2.66-0.04-4
		c0-611.5,0-1223,0-1834.5C305.51,0,611,0,916.5,0.04C918,0.04,919.5,0.67,921,1z"/>
	<path d="M143.72,1381.85c9.87,5.71,18.68,10.85,27.52,15.93c30.24,17.38,60.53,34.68,90.74,52.11
		c21.29,12.29,42.44,24.8,63.73,37.08c2.52,1.45,3.36,3.05,3.35,5.89c-0.1,31.82-0.1,63.64,0,95.46c0.01,3.08-1.07,4.83-3.69,6.33
		c-18.5,10.61-36.92,21.35-55.38,32.04c-10.46,6.06-20.87,12.19-31.46,18.02c-1.45,0.8-4.15,0.7-5.61-0.13
		c-25.67-14.69-51.02-29.95-76.93-44.19c-8.97-4.93-13.16-9.85-13.01-21.07c0.86-63.1,0.6-126.22,0.73-189.33
		C143.73,1387.74,143.72,1385.48,143.72,1381.85z"/>
	<path d="M143.76,988.73c8.03,4.62,15.28,8.8,22.54,12.97c38.51,22.11,77.04,44.19,115.53,66.34c14.46,8.32,28.77,16.9,43.24,25.19
		c3.06,1.75,4.26,3.79,3.53,7.26c-0.41,1.93-0.27,3.98-0.26,5.97c0,26.5,0.03,52.99,0.05,79.49c0,1.33-0.24,2.75,0.11,3.98
		c2.03,7.13-0.99,11.08-7.24,14.59c-26.92,15.1-53.59,30.64-80.3,46.12c-3.3,1.91-5.91,1.66-9.18-0.25
		c-22.11-12.91-44.35-25.59-66.54-38.38c-6.29-3.63-12.68-7.14-18.71-11.17c-1.56-1.04-2.17-3.79-2.79-5.88
		c-0.4-1.37-0.01-2.97-0.01-4.47c0.01-65.49,0.02-130.99,0.03-196.48C143.76,992.58,143.76,991.13,143.76,988.73z"/>
	<path d="M144.03,202.96c6.35,3.63,11.86,6.77,17.35,9.94c31.75,18.28,63.5,36.54,95.24,54.84c22.6,13.03,45.14,26.16,67.8,39.07
		c3.07,1.75,3.94,3.81,3.93,7.15c-0.11,29.83-0.07,59.65-0.07,89.48c0,1.83-0.38,3.81,0.18,5.47c1.28,3.82-0.88,5.5-3.63,7.09
		c-24.88,14.34-49.75,28.7-74.63,43.05c-0.43,0.25-0.88,0.47-1.31,0.71c-12.79,7.39-12.78,7.38-25.48,0
		c-25.1-14.58-50.19-29.18-75.32-43.7c-2.74-1.58-4.44-3.14-4.43-6.81c0.13-66.98,0.1-133.97,0.1-200.95
		C143.77,206.98,143.89,205.67,144.03,202.96z"/>
	<path d="M143.94,596.26c5.4,2.94,10.17,5.41,14.82,8.09c27.31,15.76,54.59,31.58,81.89,47.37c28,16.19,56.01,32.36,84.02,48.52
		c2.8,1.61,3.83,3.43,3.79,7.09c-0.3,30.33-0.62,60.68,0.17,90.99c0.18,6.95-2.41,9.81-7.33,12.64
		c-27.03,15.51-54.04,31.05-81.05,46.58c-1.29,0.74-2.54,1.54-4.11,2.5c-19.36-11.18-38.9-22.47-58.43-33.75
		c-10.14-5.86-20.37-11.59-30.35-17.7c-1.71-1.05-3.45-3.71-3.45-5.64c-0.12-66.16-0.02-132.32,0.04-198.49
		C143.94,602.04,143.94,599.61,143.94,596.26z"/>
	<path d="M782.43,988.77c0.19,2.12,0.44,3.69,0.45,5.26c0.06,66.64,0.07,133.27,0.19,199.91c0.01,3.2-0.91,5.08-3.79,6.73
		c-24.78,14.22-49.46,28.63-74.17,42.98c-4.14,2.4-8.2,4.97-12.5,7.03c-1.46,0.7-3.92,0.72-5.29-0.06
		c-27.96-15.96-55.84-32.06-83.65-48.29c-1.33-0.78-2.53-3.06-2.54-4.64c-0.15-33.65-0.16-67.3,0.03-100.96
		c0.01-1.81,1.56-4.37,3.15-5.29c40.94-23.82,81.98-47.48,123.02-71.13C745.42,1009.88,763.6,999.54,782.43,988.77z"/>
	<path d="M783,1382.42c0,4.03,0,7.18,0,10.32c0,64.29-0.05,128.59,0.11,192.88c0.01,4.78-1.53,7.37-5.67,9.73
		c-27.39,15.66-54.61,31.6-81.88,47.47c-3.32,1.93-6.05,2.17-9.85-0.06c-26.96-15.83-54.13-31.29-81.28-46.8
		c-2.42-1.38-3.52-2.93-3.51-5.88c0.11-33.15,0.13-66.29-0.01-99.44c-0.01-3.46,1.61-4.97,4.24-6.48
		c35.79-20.62,71.53-41.33,107.31-61.98c22.31-12.88,44.66-25.69,67.01-38.5C780.25,1383.24,781.19,1383.06,783,1382.42z"/>
	<path d="M782.9,202.82c0,6,0,10.69,0,15.38c0,62.97-0.04,125.94,0.07,188.91c0.01,3.8-1.06,6.09-4.39,7.98
		c-19.23,10.92-38.36,22.02-57.52,33.07c-9.14,5.28-18.34,10.48-27.37,15.94c-2.39,1.45-3.95,1.74-6.58,0.19
		c-27.64-16.17-55.42-32.1-83.07-48.26c-1.46-0.85-2.91-3.18-2.92-4.83c-0.17-33.32-0.19-66.64,0.03-99.95
		c0.01-1.92,1.8-4.61,3.54-5.63c23.04-13.54,46.22-26.83,69.35-40.21c31.86-18.42,63.69-36.86,95.56-55.27
		C773.54,207.87,777.57,205.75,782.9,202.82z"/>
	<path d="M782.08,596.49c0.31,3.99,0.78,7.28,0.79,10.57c0.05,64.66,0.01,129.33,0.12,193.99c0.01,3.26-1,5.34-3.72,6.91
		c-28.45,16.38-56.9,32.77-85.3,49.23c-2.42,1.4-4.35,1.47-6.82,0.04c-26.72-15.45-53.47-30.84-80.28-46.11
		c-4.33-2.47-6.04-5.45-6-10.68c0.29-31.66,0.19-63.33,0.08-95c-0.01-3.39,0.94-5.29,4.01-7.04c28.4-16.24,56.67-32.7,85-49.06
		c29.85-17.24,59.73-34.43,89.6-51.64C780.09,597.38,780.69,597.15,782.08,596.49z"/>
	<path d="M486.98,1186.67c13.15,7.54,25.57,14.65,37.98,21.8c25.18,14.51,50.34,29.04,75.51,43.56
		c21.88,12.62,43.8,25.17,65.56,38.01c1.86,1.1,3.69,4.07,3.71,6.19c0.24,31.81,0.22,63.63,0.03,95.45
		c-0.01,1.86-1.54,4.49-3.15,5.43c-20.25,11.88-40.64,23.5-60.99,35.21c-8.73,5.02-17.49,10.01-26.15,15.16
		c-2.41,1.43-4.27,1.4-6.74-0.04c-27.24-15.91-54.52-31.74-81.87-47.45c-3.14-1.81-4.19-3.9-4.18-7.51
		c0.19-65.63,0.23-131.26,0.3-196.88C486.98,1192.94,486.98,1190.3,486.98,1186.67z"/>
	<path d="M441.15,1187.62c0.26,5.17,0.71,10.03,0.72,14.9c0.06,39.66,0.07,79.32,0.02,118.97c-0.03,20.93-1.01,41.9,0.04,62.77
		c0.49,9.69-2.69,14.44-10.65,18.88c-26.11,14.55-51.82,29.83-77.8,44.63c-1.6,0.91-4.62,0.87-6.23-0.05
		c-27.84-15.82-55.56-31.85-83.33-47.8c-2.82-1.62-4.08-3.49-4.06-7.11c0.22-32.16,0.2-64.32,0.05-96.48
		c-0.02-3.82,1.26-5.91,4.53-7.78c31.24-17.89,62.39-35.95,93.57-53.95c26.71-15.42,53.42-30.84,80.16-46.23
		C438.84,1187.99,439.72,1187.97,441.15,1187.62z"/>
	<path d="M487,793.46c4.79,2.74,8.9,5.05,12.98,7.41c40.12,23.19,80.24,46.41,120.37,69.59c14.87,8.59,29.75,17.15,44.73,25.54
		c3.14,1.76,4.3,3.81,4.28,7.45c-0.15,29.49-0.6,58.99,0.26,88.45c0.24,8.38-2.73,12.01-9.26,15.69
		c-26.58,15.01-52.92,30.46-79.32,45.77c-3.26,1.89-5.97,1.94-9.51-0.14c-26.19-15.41-52.49-30.62-78.91-45.62
		c-4.29-2.43-5.81-5.01-5.79-10.04c0.22-66.47,0.15-132.94,0.16-199.42C487,796.88,487,795.61,487,793.46z"/>
	<path d="M487.41,400.89c12.74,7.32,25.15,14.41,37.51,21.57c20.31,11.75,40.57,23.58,60.89,35.32
		c26.72,15.44,53.51,30.75,80.13,46.37c1.75,1.03,3.17,4.2,3.19,6.38c0.21,31.48,0.1,62.97,0.21,94.46
		c0.01,3.09-1.06,4.89-3.63,6.37c-21.32,12.24-42.6,24.54-63.87,36.85c-7.13,4.13-14.24,8.3-21.3,12.54c-2.85,1.71-5.37,1.72-8.32,0
		c-27.37-15.94-54.83-31.72-82.15-47.75c-1.56-0.92-2.94-3.63-2.94-5.51c-0.15-68.46-0.12-136.93-0.12-205.39
		C487.01,401.93,487.11,401.77,487.41,400.89z"/>
	<path d="M441.29,794.34c0,4.52,0,9.09,0,13.67c0.01,62.83-0.15,125.66,0.29,188.49c0.04,6.32-2.61,8.43-7.06,10.98
		c-26.49,15.18-52.92,30.46-79.26,45.91c-3.53,2.07-6.09,2.25-9.71,0.14c-27.21-15.92-54.54-31.66-81.9-47.31
		c-2.89-1.65-3.72-3.6-3.71-6.79c0.11-32.33,0.11-64.66-0.01-96.99c-0.01-3.27,1.03-4.98,3.89-6.62
		c30.08-17.27,60.04-34.74,90.06-52.11c28.57-16.53,57.16-33.01,85.75-49.49C439.86,794.1,440.26,794.26,441.29,794.34z"/>
	<path d="M441.28,401.34c0,5.51,0,10.27,0,15.03c-0.02,63.48-0.01,126.97-0.19,190.45c-0.01,1.97-1.59,4.79-3.28,5.78
		c-27.36,15.99-54.92,31.66-82.27,47.66c-3.93,2.3-6.64,2.32-10.62-0.01c-26.76-15.68-53.69-31.05-80.62-46.43
		c-3.03-1.73-4.41-3.69-4.39-7.42c0.16-31.99,0.15-63.99,0.02-95.98c-0.01-3.6,1.07-5.73,4.24-7.55
		c27.79-15.89,55.49-31.94,83.21-47.95c30.02-17.33,60.04-34.66,90.07-51.96C438.37,402.44,439.42,402.12,441.28,401.34z"/>
	<path d="M486.98,39.78c18.03,0,35.33-0.08,52.64,0.09c2.36,0.02,4.96,0.79,7.02,1.97c39.37,22.62,78.65,45.38,118,68.02
		c3.17,1.83,4.75,3.85,4.73,7.77c-0.16,31.31-0.14,62.63-0.04,93.94c0.01,3.16-0.82,5.18-3.7,6.82c-17.2,9.8-34.3,19.79-51.44,29.68
		c-11.28,6.51-22.62,12.92-33.88,19.48c-2.63,1.53-4.82,2-7.74,0.3c-27.24-15.93-54.59-31.67-81.8-47.65
		c-1.75-1.03-3.69-3.6-3.69-5.47c-0.17-56.13-0.12-112.26-0.1-168.39C486.98,44.36,486.98,42.39,486.98,39.78z"/>
	<path d="M441.28,40.12c0,2.35,0,4.17,0,5.98c0,53.96-0.28,107.93,0.28,161.89c0.08,8.18-3.08,11.58-9.35,15.1
		c-25.76,14.48-51.32,29.32-76.86,44.2c-3.41,1.99-5.86,2.61-9.68,0.36c-26.74-15.75-53.65-31.21-80.6-46.6
		c-3.58-2.04-5.15-4.29-5.13-8.57c0.17-31.81,0.12-63.62,0.02-95.44c-0.01-3.53,1.04-5.59,4.3-7.46
		c38.12-21.78,76.18-43.67,114.08-65.83c4.69-2.74,9.11-3.96,14.44-3.88c14.81,0.22,29.63-0.01,44.44-0.04
		C438.35,39.84,439.48,40,441.28,40.12z"/>
	<path d="M486.76,1579.26c13.21,7.58,25.36,14.54,37.51,21.53c38.44,22.12,76.88,44.24,115.31,66.37
		c8.45,4.87,16.75,10.03,25.37,14.56c3.99,2.1,5.15,4.7,5.13,9c-0.14,31.32-0.02,62.64-0.18,93.96c-0.01,1.69-1.45,4-2.92,4.94
		c-6.67,4.28-13.52,8.3-20.46,12.12c-1.77,0.97-4.12,1.22-6.21,1.23c-42.82,0.08-85.63,0.11-128.45-0.03
		c-2.62-0.01-5.45-1.24-7.82-2.56c-5.77-3.2-13.4-5.55-16.36-10.57c-2.87-4.86-0.94-12.6-0.95-19.08
		c-0.02-61.64,0-123.28,0.01-184.93C486.76,1583.99,486.76,1582.18,486.76,1579.26z"/>
	<path d="M350.34,1803.01c-20.82,0-41.64,0.08-62.46-0.1c-3.17-0.03-6.58-0.77-9.44-2.12c-5.51-2.61-10.9-5.6-15.92-9.05
		c-1.6-1.1-2.62-4.15-2.63-6.32c-0.11-26.14,0.03-52.28,0.08-78.42c0.01-6.49-0.32-12.99,0.01-19.46c0.1-1.88,1.49-4.45,3.07-5.37
		c29.3-17.03,58.73-33.82,88.1-50.73c28.79-16.58,57.53-33.24,86.31-49.83c1.04-0.6,2.28-0.87,3.43-1.29
		c0.22,1.35,0.58,2.69,0.63,4.04c0.18,4.96,0.36,9.93,0.36,14.89c0.06,61.95,0.07,123.9,0.2,185.85c0.01,3.03-0.77,4.89-3.52,6.37
		c-5.53,2.98-10.75,6.53-16.32,9.43c-2.37,1.24-5.29,2-7.96,2.02C392.97,1803.09,371.66,1803.02,350.34,1803.01z"/>
	<path d="M555.6,1174.64c-8.59-4.95-16.67-9.6-24.73-14.27c-21.56-12.49-43.09-25.04-64.73-37.39c-1.18-0.67-3.54-0.34-4.84,0.4
		c-28.07,16.15-56.06,32.42-84.08,48.66c-0.82,0.48-1.72,0.81-3.5,1.64c0-2.14,0-3.63,0-5.12c0.01-22.99,0.11-45.98-0.07-68.97
		c-0.03-3.98,1.15-6.3,4.65-8.29c27.1-15.42,54.11-30.99,81.07-46.65c2.74-1.59,5-1.89,7.72-0.3c28.67,16.7,57.38,33.32,86,50.1
		c1.42,0.83,2.97,2.92,2.98,4.44c0.18,24.48,0.12,48.97,0.09,73.45C556.17,1172.82,555.94,1173.29,555.6,1174.64z"/>
	<path d="M555.55,388.42c-25.29-14.6-49.96-28.83-74.61-43.08c-4.58-2.65-9-5.61-13.74-7.91c-1.66-0.8-4.49-0.79-6.07,0.1
		c-27.99,15.87-55.86,31.94-83.77,47.95c-0.97,0.56-2,1.01-3.59,1.81c0-2.69,0-4.9,0-7.11c0-22.49,0.08-44.98-0.1-67.47
		c-0.03-3.29,0.98-5.07,3.77-6.67c26.92-15.43,53.84-30.86,80.58-46.61c4.44-2.61,7.6-1.96,11.62,0.42
		c20.59,12.18,41.3,24.16,61.99,36.16c7.01,4.07,14.18,7.86,21.1,12.07c1.53,0.93,3.24,3.13,3.26,4.76
		c0.22,24.32,0.18,48.64,0.17,72.96C556.15,386.41,555.88,387.02,555.55,388.42z"/>
	<path d="M373.68,1566.67c0-3.72,0-6.57,0-9.41c0.01-21.82,0.11-43.63-0.06-65.45c-0.03-3.32,1.14-5.07,3.84-6.62
		c27.95-16.03,55.84-32.18,83.83-48.14c1.17-0.67,3.47-0.4,4.74,0.33c29.22,16.73,58.38,33.55,87.48,50.49
		c1.27,0.74,2.59,2.69,2.6,4.08c0.15,24.47,0.11,48.94,0.09,73.41c0,0.47-0.23,0.94-0.53,2.11c-6.31-3.53-12.48-6.86-18.54-10.37
		c-22.87-13.26-45.73-26.54-68.54-39.91c-3.13-1.83-5.71-1.88-8.94,0.01c-27.4,16-54.9,31.84-82.37,47.72
		C376.44,1565.4,375.54,1565.77,373.68,1566.67z"/>
	<path d="M373.76,779.95c0-24.86,0.09-48.96-0.08-73.06c-0.03-4.16,1.32-6.29,5.04-8.4c27.24-15.47,54.26-31.32,81.46-46.87
		c1.56-0.89,4.52-0.92,6.07-0.03c25.35,14.45,50.14,29.97,76.04,43.35c11.45,5.92,14.64,12.77,14.01,24.89
		c-1.05,20.09-0.29,40.27-0.29,61.29c-5.88-3.24-11.34-6.15-16.7-9.24c-24.14-13.9-48.27-27.81-72.32-41.85
		c-2.58-1.51-4.32-0.98-6.64,0.37c-27.93,16.24-55.92,32.38-83.91,48.53C375.75,779.33,374.95,779.51,373.76,779.95z"/>
	<path d="M215.01,1371.41c-16.22-9.28-31.54-17.99-46.8-26.78c-14.45-8.33-28.88-16.68-43.22-25.19c-3.03-1.8-5.3-1.4-8.2,0.29
		c-24.27,14.14-48.63,28.13-72.97,42.15c-0.95,0.55-2,0.93-3.83,1.77c0-3.2,0.01-5.74,0-8.29c-0.06-22.49-0.04-44.99-0.29-67.48
		c-0.04-3.46,2.03-4.65,4.27-5.96c10.71-6.23,21.46-12.39,32.21-18.55c13.73-7.86,27.56-15.57,41.16-23.66
		c2.43-1.45,3.92-1.45,6.16-0.15c22.57,13.1,45.18,26.14,67.8,39.16c6.16,3.55,12.31,7.13,18.59,10.46c3.47,1.84,5.3,3.86,5.25,8.31
		c-0.29,22.66-0.14,45.32-0.14,67.99C215.01,1367.14,215.01,1368.78,215.01,1371.41z"/>
	<path d="M214.75,1764.28c-10.93-6.27-21.39-12.22-31.8-18.26c-19.71-11.43-39.35-22.96-59.13-34.26c-1.32-0.76-3.9-0.54-5.31,0.25
		c-14.99,8.45-29.86,17.11-44.77,25.71c-10.31,5.95-20.61,11.91-30.95,17.81c-0.65,0.37-1.55,0.3-3.02,0.56
		c0-10.59-0.01-20.85,0-31.1c0.02-14.32,0.18-28.64,0.01-42.96c-0.04-3.34,1.18-5.07,3.96-6.66c24.53-14.05,48.95-28.29,73.52-42.28
		c1.63-0.93,4.68-1.04,6.27-0.13c29.45,16.78,58.8,33.74,88.07,50.83c1.65,0.96,3.44,3.42,3.45,5.2
		c0.23,24.31,0.15,48.61,0.14,72.92C215.2,1762.4,215.02,1762.89,214.75,1764.28z"/>
	<path d="M40.01,577.42c0-8.46,0-16.23,0-23.99c0-16.82,0.07-33.65-0.06-50.47c-0.02-3.02,0.87-4.89,3.51-6.41
		c19.19-10.99,38.31-22.11,57.45-33.18c5.44-3.15,11.01-6.09,16.3-9.47c2.44-1.56,4.09-1.49,6.58-0.04
		c24.09,14.06,48.27,27.96,72.43,41.9c5.16,2.98,10.4,5.82,15.42,9.02c1.46,0.93,3.22,2.87,3.24,4.36
		c0.2,24.81,0.14,49.61,0.14,75.23c-1.61-0.63-2.79-0.93-3.8-1.51c-28.61-16.38-57.24-32.74-85.77-49.26
		c-3.35-1.94-5.74-1.72-9.06,0.22c-23.74,13.92-47.63,27.59-71.49,41.32C43.5,575.93,42,576.5,40.01,577.42z"/>
	<path d="M40,970.58c0-26.12-0.05-51.1,0.13-76.08c0.01-1.55,1.52-3.7,2.93-4.52c20.25-11.81,40.6-23.44,60.92-35.12
		c4.43-2.54,8.7-5.39,13.29-7.59c1.74-0.83,4.62-1.07,6.19-0.18c29.72,16.87,59.33,33.92,88.89,51.07c1.28,0.74,2.53,2.82,2.54,4.28
		c0.14,24.5,0.08,48.99,0.04,73.49c0,0.29-0.23,0.58-0.67,1.62c-4.14-2.37-8.21-4.68-12.27-7.03c-26.26-15.24-52.5-30.5-78.82-45.65
		c-0.98-0.56-2.9-0.41-3.94,0.18c-17.18,9.81-34.27,19.77-51.41,29.65C58.88,959.86,49.87,964.95,40,970.58z"/>
	<path d="M214.24,191.54c-7.26-4.12-14.26-8.01-21.19-12.03c-23.27-13.5-46.5-27.07-69.82-40.48c-1.08-0.62-3.2-0.42-4.36,0.24
		c-15.61,8.91-31.13,18-46.7,26.99c-10.39,6-20.83,11.91-31.86,18.21c-0.15-1.78-0.31-2.84-0.31-3.9
		c-0.01-22.98,0.2-45.97-0.17-68.95c-0.08-4.93,2.05-7.01,5.74-9.1c18.95-10.78,37.83-21.71,56.72-32.6c5-2.88,9.85-6.06,15.03-8.55
		c1.82-0.88,4.91-0.94,6.62,0.03c29.39,16.73,58.66,33.64,87.88,50.65c1.43,0.83,3.04,2.89,3.04,4.38
		c0.13,24.64,0.01,49.28-0.06,73.92C214.82,190.49,214.69,190.63,214.24,191.54z"/>
	<path d="M715.05,1368.51c0-26.85,0-52.98,0-79.11c29.04-16.76,57.92-33.49,86.91-50.02c1.37-0.78,4.07-0.43,5.59,0.41
		c12.01,6.65,23.88,13.54,35.78,20.38c12.17,7,24.37,13.95,36.42,21.14c1.55,0.93,3.29,3.16,3.31,4.79
		c0.19,24.83,0.1,49.66,0.06,74.48c0,0.3-0.23,0.6-0.57,1.43c-8.57-4.91-17.09-9.75-25.59-14.65c-15.74-9.08-31.58-18-47.12-27.42
		c-4.3-2.61-7.28-1.31-10.83,0.74c-26.71,15.47-53.46,30.89-80.2,46.29C717.78,1367.57,716.58,1367.9,715.05,1368.51z"/>
	<path d="M714.75,1762.27c0-2.99,0-5.22,0-7.45c0-22.49,0.09-44.99-0.09-67.48c-0.03-3.48,1.17-5.27,4.08-6.94
		c27.27-15.63,54.48-31.35,81.64-47.17c3.01-1.75,5.43-1.59,8.32,0.09c23.04,13.37,46.09,26.72,69.24,39.89
		c3.83,2.18,5.52,4.54,5.46,9.23c-0.3,22.32-0.13,44.65-0.13,66.98c0,1.63,0,3.26,0,5.92c-5.46-3.12-10.15-5.77-14.82-8.48
		c-20.03-11.62-40.01-23.32-60.16-34.73c-1.67-0.95-4.89-0.75-6.63,0.24c-27.92,15.87-55.72,31.96-83.55,48
		C717.26,1760.86,716.39,1761.34,714.75,1762.27z"/>
	<path d="M883.01,576.06c-8.21-4.76-15.43-8.94-22.65-13.12c-17.55-10.14-35.06-20.36-52.74-30.28c-1.53-0.86-4.56-0.32-6.28,0.66
		c-26.65,15.16-53.19,30.5-79.77,45.78c-1.94,1.12-3.94,2.12-6.57,3.53c0-11.5,0-22.12,0-32.73c0-14,0.09-27.99-0.07-41.99
		c-0.03-3.05,0.93-4.86,3.57-6.36c17.23-9.79,34.39-19.69,51.55-29.59c10.72-6.18,21.37-12.47,32.14-18.56
		c1.13-0.64,3.21-0.82,4.27-0.21c24.51,13.98,48.97,28.07,73.35,42.28c1.43,0.83,3.05,2.87,3.06,4.36
		C883.06,524.8,883.01,549.77,883.01,576.06z"/>
	<path d="M882.84,968.64c-6.9-3.85-13.21-7.26-19.41-10.87c-18.7-10.88-37.32-21.9-56.11-32.63c-1.33-0.76-4.06-0.17-5.61,0.72
		c-27.79,15.94-55.5,32.02-83.24,48.06c-0.83,0.48-1.76,0.79-3.12,1.4c-0.15-1.34-0.36-2.38-0.36-3.41
		c-0.01-23.5,0.07-46.99-0.07-70.49c-0.02-3.41,0.99-5.29,4.04-7.03c27.21-15.56,54.31-31.32,81.42-47.06
		c2.67-1.55,4.92-1.73,7.8-0.04c23.24,13.56,46.56,27.01,69.94,40.32c3.77,2.15,5.09,4.65,5.05,9.1
		c-0.22,22.98-0.01,45.97,0.04,68.95C883.2,966.31,883.05,966.96,882.84,968.64z"/>
	<path d="M883.02,182.76c-9.6-5.48-18.44-10.49-27.25-15.56c-15.86-9.12-31.75-18.2-47.52-27.48c-2.67-1.57-4.38-1.31-7.01,0.22
		c-27.94,16.31-56.01,32.43-84.04,48.58c-0.51,0.29-1.14,0.37-2.19,0.7c0-2.53,0-4.63,0-6.73c0-21.49,0.22-42.99-0.16-64.48
		c-0.1-5.44,1.72-8.33,6.27-10.88c17-9.52,33.81-19.38,50.69-29.1c9.85-5.67,19.64-11.44,29.61-16.89c1.55-0.85,4.35-1,5.83-0.16
		c20.69,11.73,41.25,23.68,61.84,35.58c0.43,0.25,0.77,0.71,1.22,0.85c11.2,3.4,13.55,11.03,13,22.17
		C882.29,140.18,883.02,160.86,883.02,182.76z"/>
	<path d="M39.97,1625.55c0-6.34,0-11.96,0-17.57c-0.01-62.8-0.05-125.6,0.1-188.4c0-1.85,1.43-4.49,2.98-5.41
		c18.17-10.76,36.49-21.26,55.52-32.25c0.17,2.06,0.42,3.6,0.42,5.14c0.02,66.96,0.03,133.93-0.08,200.89c0,1.79-0.94,4.43-2.3,5.24
		c-17.76,10.56-35.67,20.86-53.56,31.21C42.38,1624.79,41.58,1624.96,39.97,1625.55z"/>
	<path d="M98.56,988.85c0.18,2.35,0.43,4.1,0.43,5.84c0.02,66.46-0.01,132.92,0.09,199.38c0,3.2-0.82,5.21-3.62,6.81
		c-17.94,10.23-35.81,20.57-53.72,30.86c-0.24,0.14-0.64,0.02-1.37,0.02c-0.17-0.63-0.54-1.35-0.54-2.07
		c0.04-67.62,0.07-135.25,0.31-202.87c0.01-2.2,1.55-5.37,3.35-6.43C61.42,1009.85,79.56,999.67,98.56,988.85z"/>
	<path d="M40.01,839.58c0-2.3,0-3.74,0-5.17c0-66.29,0.05-132.58-0.11-198.88c-0.01-4.46,1.45-6.71,5.28-8.86
		c17.66-9.91,35.11-20.2,53.41-30.8c0.17,2.26,0.4,3.97,0.4,5.68c0.02,66.46-0.01,132.92,0.07,199.38c0,3.58-1.19,5.51-4.41,7.33
		c-15.95,9.01-31.7,18.4-47.53,27.62C45.05,837.1,42.85,838.11,40.01,839.58z"/>
	<path d="M40.01,445.75c0-2.54,0-4.84,0-7.14c0-65,0.06-130-0.11-194.99c-0.01-5.11,1.39-7.91,6.02-10.48
		c17.44-9.68,34.56-19.93,52.45-30.35c0.25,2.19,0.62,3.91,0.62,5.63c0.03,66.5,0.06,133-0.11,199.49
		c-0.01,2.21-1.41,5.42-3.17,6.47c-17.86,10.66-35.93,20.97-53.96,31.35C41.5,445.87,41.11,445.75,40.01,445.75z"/>
	<path d="M883.26,1625.07c-4.86-2.75-8.8-4.95-12.72-7.2c-12.78-7.34-25.5-14.78-38.34-22.01c-3.7-2.08-5.33-4.53-5.31-9.05
		c0.16-65.16,0.11-130.32,0.11-195.47c0-2.91,0-5.82,0-9.73c9.34,5.33,17.62,10.05,25.89,14.79c8.6,4.93,17.11,10,25.8,14.76
		c3.51,1.92,4.66,4.35,4.64,8.34c-0.16,33.83-0.09,67.66-0.08,101.49c0,32.5,0.01,64.99,0.01,97.49
		C883.26,1620.26,883.26,1622.05,883.26,1625.07z"/>
	<path d="M882.76,1231.35c-6.88-3.97-13.28-7.63-19.65-11.33c-10.98-6.37-22-12.65-32.83-19.26c-1.58-0.97-3.14-3.5-3.14-5.32
		c-0.12-67.49-0.06-134.98,0-202.47c0-1.1,0.28-2.2,0.51-3.98c3.15,1.64,5.91,2.95,8.55,4.47c14.73,8.49,29.48,16.97,44.09,25.68
		c1.4,0.83,2.66,3.22,2.66,4.89c0.14,43.32,0.08,86.63,0.1,129.95c0.01,24.48,0.12,48.97,0.16,73.45
		C883.21,1228.51,882.97,1229.6,882.76,1231.35z"/>
	<path d="M827.65,202.83c10.88,6.18,21.18,11.97,31.42,17.86c6.86,3.95,13.73,7.92,20.39,12.21c1.62,1.04,3.41,3.39,3.41,5.14
		c0.19,68.63,0.18,137.25,0.18,205.88c0,0.26-0.3,0.52-0.66,1.12c-8.12-4.65-16.23-9.29-24.34-13.95
		c-8.87-5.09-17.78-10.12-26.58-15.33c-2.3-1.36-4.49-2.57-4.48-6.34c0.17-65.46,0.11-130.92,0.13-196.38
		C827.11,209.86,827.44,206.67,827.65,202.83z"/>
	<path d="M827.11,595.57c18.6,10.8,36.14,20.87,53.49,31.24c1.44,0.86,2.31,3.8,2.32,5.78c0.13,35.97,0.08,71.94,0.1,107.91
		c0.02,31.64,0.08,63.28,0.11,94.92c0,0.77-0.2,1.55-0.41,3.01c-6.98-3.98-13.52-7.65-20.02-11.42
		c-10.72-6.22-21.48-12.37-32.02-18.87c-1.71-1.06-3.42-3.76-3.43-5.71c-0.18-62.1-0.14-124.2-0.14-186.3
		C827.11,609.61,827.11,603.08,827.11,595.57z"/>
	<path d="M236.04,74.09c-19.01-11.02-37.97-22.01-56.92-32.99c0.06-0.28,0.13-0.56,0.19-0.84c37.73,0,75.47,0,113.2,0
		c0.19,0.26,0.38,0.53,0.58,0.79C274.11,52.05,255.12,63.04,236.04,74.09z"/>
	<path d="M635.48,40.21c36.78,0,73.56,0,110.33,0c0.09,0.29,0.18,0.58,0.27,0.87c-5.59,3.31-11.16,6.67-16.79,9.9
		c-11.72,6.74-23.44,13.47-35.26,20.04c-1.52,0.85-4.1,1.55-5.36,0.85c-17.96-10.09-35.77-20.43-53.62-30.71
		C635.2,40.85,635.34,40.53,635.48,40.21z"/>
	<path d="M873.54,1803.01c-14.26,0-28.53,0.07-42.79-0.12c-1.26-0.02-3.54-1.75-3.57-2.76c-0.29-8.07-0.17-16.16-0.17-25.91
		c16.46,9.44,31.87,18.28,47.28,27.12C874.05,1801.9,873.8,1802.46,873.54,1803.01z"/>
	<path d="M190.69,1802.97c-3.15,0-5.52,0-7.9,0c-11.63,0.01-23.27-0.06-34.9,0.08c-3.28,0.04-4.92-0.88-4.83-4.46
		c0.16-6.48,0.06-12.96,0.03-19.45c-0.01-2.92,1.21-4.29,3.96-2.73c14.07,7.99,28.07,16.09,42.08,24.19
		C189.6,1800.88,189.8,1801.58,190.69,1802.97z"/>
	<path d="M735.75,1801.4c15.43-8.85,30.87-17.71,47.21-27.08c0,9.35,0.07,17.74-0.11,26.12c-0.02,0.86-1.52,2.43-2.35,2.44
		c-14.71,0.15-29.42,0.11-44.13,0.11C736.16,1802.46,735.96,1801.93,735.75,1801.4z"/>
	<path d="M99.01,1774.23c0,5.83,0,10.55,0,15.27c0,13.51,0,13.51-13.49,13.51c-11.07,0-22.15,0-33.22,0
		c-0.16-0.44-0.32-0.89-0.49-1.33C67.12,1792.78,82.43,1783.88,99.01,1774.23z"/>
</g>
</svg>
